<svg width="440" height="201" viewBox="0 0 440 201" fill="none" xmlns="http://www.w3.org/2000/svg">
<path d="M131.013 197.358H59.1894V189.347C68.2133 186.216 76.6848 184.006 84.6038 182.717V144.043H0.349609V137.689L102.56 0.672607H110.018V129.678H145.101V144.043H110.018V182.717C117.2 184.19 124.199 186.4 131.013 189.347V197.358ZM84.6038 58.6836L87.6424 38.7942H86.8137L76.0402 58.6836L29.6314 122.496L18.5817 131.612L38.1949 129.678H84.6038V58.6836Z" fill="#0D1E22"/>
<path d="M156.207 100.673C156.207 67.5234 161.732 42.5695 172.781 25.8107C183.831 9.05198 199.669 0.672607 220.295 0.672607C242.579 0.672607 258.877 8.9599 269.19 25.5345C279.503 41.9249 284.66 66.9709 284.66 100.673C284.66 133.822 279.043 158.776 267.809 175.534C256.759 192.293 240.369 200.673 218.638 200.673C207.404 200.673 197.827 198.463 189.908 194.043C181.99 189.439 175.544 182.901 170.571 174.43C165.599 165.774 161.916 155.277 159.522 142.938C157.312 130.599 156.207 116.511 156.207 100.673ZM182.726 100.673C182.726 113.932 183.371 125.995 184.66 136.86C185.949 147.726 187.975 157.118 190.737 165.037C193.684 172.772 197.367 178.757 201.787 182.993C206.391 187.229 211.916 189.347 218.362 189.347C232.91 189.347 243.131 182.164 249.024 167.8C255.102 153.435 258.141 131.059 258.141 100.673C258.141 87.4129 257.588 75.3503 256.483 64.4848C255.378 53.6192 253.352 44.319 250.406 36.5842C247.459 28.8494 243.5 22.8641 238.527 18.6284C233.739 14.3927 227.662 12.2748 220.295 12.2748C206.483 12.2748 196.722 19.4571 191.013 33.8218C185.489 48.0023 182.726 70.2859 182.726 100.673Z" fill="#0D1E22"/>
<path d="M425.6 197.358H353.777V189.347C362.801 186.216 371.272 184.006 379.191 182.717V144.043H294.937V137.689L397.147 0.672607H404.605V129.678H439.688V144.043H404.605V182.717C411.788 184.19 418.786 186.4 425.6 189.347V197.358ZM379.191 58.6836L382.23 38.7942H381.401L370.628 58.6836L324.219 122.496L313.169 131.612L332.782 129.678H379.191V58.6836Z" fill="#0D1E22"/>
</svg>
