<svg width="47" height="42" viewBox="0 0 47 42" fill="none" xmlns="http://www.w3.org/2000/svg">
<path d="M23.3963 40.166C23.1542 40.166 22.9185 40.264 22.7479 40.4347C22.5775 40.6053 22.4792 40.841 22.4792 41.083C22.4792 41.3242 22.5774 41.5608 22.7479 41.7313C22.9185 41.9019 23.1543 42.0001 23.3963 42.0001C23.6375 42.0001 23.8741 41.902 24.0446 41.7313C24.2151 41.5608 24.3133 41.3242 24.3133 41.083C24.3133 40.8419 24.2152 40.6053 24.0446 40.4347C23.8741 40.264 23.6375 40.166 23.3963 40.166Z" fill="#9F8E60"/>
<path d="M7.88651 6.63289C8.12769 6.63289 8.36429 6.53477 8.53476 6.36411C8.70542 6.19363 8.80354 5.95704 8.80354 5.71586C8.80354 5.47468 8.70542 5.23809 8.53476 5.06752C8.36429 4.89695 8.12769 4.79883 7.88651 4.79883C7.64533 4.79883 7.40874 4.89686 7.23817 5.06752C7.0676 5.23818 6.96948 5.47468 6.96948 5.71586C6.96948 5.95795 7.06751 6.19363 7.23817 6.36411C7.40874 6.53477 7.64533 6.63289 7.88651 6.63289Z" fill="#9F8E60"/>
<path d="M11.9517 6.63289C12.1929 6.63289 12.4295 6.53559 12.5999 6.36411C12.7714 6.19363 12.8687 5.95704 12.8687 5.71586C12.8687 5.47468 12.7714 5.239 12.5999 5.06752C12.4295 4.89695 12.1929 4.79883 11.9517 4.79883C11.7105 4.79883 11.4739 4.89686 11.3034 5.06752C11.1328 5.23818 11.0347 5.47468 11.0347 5.71586C11.0347 5.95795 11.1327 6.19363 11.3034 6.36411C11.4739 6.53568 11.7105 6.63289 11.9517 6.63289Z" fill="#9F8E60"/>
<path d="M16.0179 6.63289C16.259 6.63289 16.4956 6.53559 16.6662 6.36411C16.8367 6.19363 16.9349 5.95704 16.9349 5.71586C16.9349 5.47468 16.8368 5.239 16.6662 5.06752C16.4956 4.89695 16.259 4.79883 16.0179 4.79883C15.7758 4.79883 15.5392 4.89686 15.3695 5.06752C15.199 5.23809 15.1008 5.47468 15.1008 5.71586C15.1008 5.95795 15.198 6.19363 15.3695 6.36411C15.5401 6.53568 15.7758 6.63289 16.0179 6.63289Z" fill="#9F8E60"/>
<path d="M46.8885 14.5205L44.9345 9.54739V4.58515C44.9345 2.0569 42.8776 0 40.3493 0H6.60262C4.07437 0 2.01747 2.0569 2.01747 4.58515V9.5462L0.0634585 14.5206C0.0214585 14.6275 0 14.7412 0 14.8559V17.1447C0 18.7097 0.782135 20.0345 2.01747 20.8101V37.4148C2.01747 39.9431 4.07437 42 6.60262 42H19.2693C19.7757 42 20.1863 41.5894 20.1863 41.083C20.1863 40.5766 19.7757 40.1659 19.2693 40.1659H6.60262C5.08567 40.1659 3.85153 38.9318 3.85153 37.4148V21.4826C4.11838 21.5238 4.39359 21.5464 4.67686 21.5464C6.25241 21.5464 7.59861 20.8854 8.43668 19.8269C9.27476 20.8853 10.621 21.5464 12.1965 21.5464C13.7721 21.5464 15.1183 20.8854 15.9563 19.8269C16.7944 20.8854 18.1406 21.5464 19.7162 21.5464C21.2917 21.5464 22.6379 20.8854 23.476 19.8269C24.3141 20.8854 25.6603 21.5464 27.2358 21.5464C28.8114 21.5464 30.1576 20.8854 30.9956 19.8269C31.8337 20.8854 33.1799 21.5464 34.7555 21.5464C36.331 21.5464 37.6772 20.8854 38.5153 19.8269C39.3534 20.8853 40.6996 21.5464 42.2751 21.5464C42.5584 21.5464 42.8336 21.5238 43.1004 21.4826V37.4148C43.1004 38.9318 41.8663 40.1659 40.3493 40.1659H27.5226C27.0162 40.1659 26.6055 40.5766 26.6055 41.083C26.6055 41.5894 27.0162 42 27.5226 42H40.3493C42.8776 42 44.9345 39.9431 44.9345 37.4148V20.8101C46.1698 20.0345 46.952 18.7096 46.952 17.1447V14.8559C46.952 14.7411 46.9304 14.6274 46.8885 14.5205ZM2.2625 13.9389L3.55927 10.6376H43.3922L44.6894 13.9389H2.2625ZM6.60262 1.83406H40.3493C41.8663 1.83406 43.1004 3.0682 43.1004 4.58515V8.80349H3.85153V4.58515C3.85153 3.0682 5.08567 1.83406 6.60262 1.83406ZM7.51965 17.1447C7.51965 18.6325 6.32412 19.7123 4.67686 19.7123C3.02959 19.7123 1.83406 18.6325 1.83406 17.1447V15.7729H7.51965V17.1447ZM12.1965 19.7123C10.5492 19.7123 9.35371 18.6325 9.35371 17.1446V15.7729H15.0393V17.1446C15.0393 18.6325 13.8438 19.7123 12.1965 19.7123ZM19.7162 19.7123C18.0689 19.7123 16.8734 18.6325 16.8734 17.1446V15.7729H22.559V17.1446C22.559 18.6325 21.3634 19.7123 19.7162 19.7123ZM27.2358 19.7123C25.5885 19.7123 24.393 18.6325 24.393 17.1446V15.7729H30.0786V17.1446C30.0786 18.6325 28.8831 19.7123 27.2358 19.7123ZM34.7555 19.7123C33.1082 19.7123 31.9127 18.6325 31.9127 17.1446V15.7729H37.5983V17.1446C37.5983 18.6325 36.4027 19.7123 34.7555 19.7123ZM42.2751 19.7123C40.6278 19.7123 39.4323 18.6325 39.4323 17.1447V17.1446V15.7729H45.1179V17.1447C45.1179 18.6325 43.9224 19.7123 42.2751 19.7123Z" fill="#9F8E60"/>
</svg>
