<svg width="56" height="42" viewBox="0 0 56 42" fill="none" xmlns="http://www.w3.org/2000/svg">
<path d="M36.7231 39.8462H30.8V38.2308H50.5615C51.3039 38.2308 51.9077 37.6269 51.9077 36.8846V24.2308C51.9077 23.7847 51.5462 23.4231 51.1 23.4231C50.6538 23.4231 50.2923 23.7847 50.2923 24.2308V36.6154H28.3769V31.1231C28.3769 30.677 28.0154 30.3154 27.5692 30.3154C27.1231 30.3154 26.7615 30.677 26.7615 31.1231V36.6154H4.84615V1.61538H7.21538C7.66155 1.61538 8.02308 1.25375 8.02308 0.807692C8.02308 0.361631 7.66155 0 7.21538 0H4.57692C3.8346 0 3.23077 0.603831 3.23077 1.34615V3.23077H1.34615C0.603831 3.23077 0 3.8346 0 4.57692V40.1154C0 40.8577 0.603831 41.4615 1.34615 41.4615H24.6103C24.8561 41.7877 25.2456 42 25.6846 42H29.4538C29.8929 42 30.2823 41.7877 30.5282 41.4615H36.7231C37.1692 41.4615 37.5308 41.0999 37.5308 40.6538C37.5308 40.2078 37.1692 39.8462 36.7231 39.8462ZM1.61538 4.84615H3.23077V36.8846C3.23077 37.6269 3.8346 38.2308 4.57692 38.2308H24.3385V39.8462H1.61538V4.84615ZM25.9538 40.3846V38.2308H27.5692H29.1846V40.3846H25.9538Z" fill="#9F8E60"/>
<path d="M53.7923 3.23077H51.9076V1.34615C51.9076 0.603831 51.3038 0 50.5615 0H30.8C29.4803 0 28.3066 0.636354 27.5692 1.61818C26.8318 0.636354 25.6581 0 24.3384 0H10.9846C10.5384 0 10.1769 0.361631 10.1769 0.807692C10.1769 1.25375 10.5384 1.61538 10.9846 1.61538H24.3384C25.6744 1.61538 26.7615 2.70232 26.7615 4.03846V27.3538C26.7615 27.7999 27.123 28.1615 27.5692 28.1615C28.0154 28.1615 28.3769 27.7999 28.3769 27.3538V4.03846C28.3769 2.70232 29.4639 1.61538 30.8 1.61538H50.2923V20.3962C50.2923 20.8422 50.6538 21.2039 51.1 21.2039C51.5461 21.2039 51.9076 20.8422 51.9076 20.3962V4.84615H53.523V39.8462H40.4923C40.0461 39.8462 39.6846 40.2078 39.6846 40.6538C39.6846 41.0999 40.0461 41.4615 40.4923 41.4615H53.7923C54.5346 41.4615 55.1384 40.8577 55.1384 40.1154V4.57692C55.1384 3.8346 54.5346 3.23077 53.7923 3.23077Z" fill="#9F8E60"/>
<path d="M11.8077 8.32559H19.3462C19.7923 8.32559 20.1538 7.96396 20.1538 7.5179C20.1538 7.07184 19.7923 6.71021 19.3462 6.71021H11.8077C11.3615 6.71021 11 7.07184 11 7.5179C11 7.96396 11.3615 8.32559 11.8077 8.32559Z" fill="#9F8E60"/>
<path d="M11.8077 11.5563H15.0385C15.4846 11.5563 15.8462 11.1947 15.8462 10.7486C15.8462 10.3025 15.4846 9.94092 15.0385 9.94092H11.8077C11.3615 9.94092 11 10.3025 11 10.7486C11 11.1947 11.3615 11.5563 11.8077 11.5563Z" fill="#9F8E60"/>
<path d="M11.8077 14.7873H17.1923C17.6385 14.7873 18 14.4256 18 13.9796C18 13.5335 17.6385 13.1719 17.1923 13.1719H11.8077C11.3615 13.1719 11 13.5335 11 13.9796C11 14.4256 11.3615 14.7873 11.8077 14.7873Z" fill="#9F8E60"/>
<path d="M11.8077 18.018H19.3462C19.7923 18.018 20.1538 17.6563 20.1538 17.2103C20.1538 16.7642 19.7923 16.4026 19.3462 16.4026H11.8077C11.3615 16.4026 11 16.7642 11 17.2103C11 17.6563 11.3615 18.018 11.8077 18.018Z" fill="#9F8E60"/>
<path d="M11.8077 23.9076H19.3462C19.7923 23.9076 20.1538 23.546 20.1538 23.0999C20.1538 22.6539 19.7923 22.2922 19.3462 22.2922H11.8077C11.3615 22.2922 11 22.6539 11 23.0999C11 23.546 11.3615 23.9076 11.8077 23.9076Z" fill="#9F8E60"/>
<path d="M11.8077 27.1383H17.1923C17.6385 27.1383 18 26.7767 18 26.3306C18 25.8846 17.6385 25.5229 17.1923 25.5229H11.8077C11.3615 25.5229 11 25.8846 11 26.3306C11 26.7767 11.3615 27.1383 11.8077 27.1383Z" fill="#9F8E60"/>
<path d="M11.8077 30.3693H19.3462C19.7923 30.3693 20.1538 30.0077 20.1538 29.5616C20.1538 29.1155 19.7923 28.7539 19.3462 28.7539H11.8077C11.3615 28.7539 11 29.1155 11 29.5616C11 30.0077 11.3615 30.3693 11.8077 30.3693Z" fill="#9F8E60"/>
<path d="M11.8077 33.6H15.0385C15.4846 33.6 15.8462 33.2384 15.8462 32.7923C15.8462 32.3462 15.4846 31.9846 15.0385 31.9846H11.8077C11.3615 31.9846 11 32.3462 11 32.7923C11 33.2384 11.3615 33.6 11.8077 33.6Z" fill="#9F8E60"/>
<path d="M36.8077 8.32559H40.0385C40.4846 8.32559 40.8462 7.96396 40.8462 7.5179C40.8462 7.07184 40.4846 6.71021 40.0385 6.71021H36.8077C36.3615 6.71021 36 7.07184 36 7.5179C36 7.96396 36.3615 8.32559 36.8077 8.32559Z" fill="#9F8E60"/>
<path d="M36.8077 11.5563H44.3462C44.7923 11.5563 45.1538 11.1947 45.1538 10.7486C45.1538 10.3025 44.7923 9.94092 44.3462 9.94092H36.8077C36.3615 9.94092 36 10.3025 36 10.7486C36 11.1947 36.3615 11.5563 36.8077 11.5563Z" fill="#9F8E60"/>
<path d="M36.8077 14.7873H43.2692C43.7154 14.7873 44.0769 14.4256 44.0769 13.9796C44.0769 13.5335 43.7154 13.1719 43.2692 13.1719H36.8077C36.3615 13.1719 36 13.5335 36 13.9796C36 14.4256 36.3615 14.7873 36.8077 14.7873Z" fill="#9F8E60"/>
<path d="M36.8077 18.018H41.1154C41.5616 18.018 41.9231 17.6563 41.9231 17.2103C41.9231 16.7642 41.5616 16.4026 41.1154 16.4026H36.8077C36.3615 16.4026 36 16.7642 36 17.2103C36 17.6563 36.3615 18.018 36.8077 18.018Z" fill="#9F8E60"/>
<path d="M36.8077 23.9076H42.1923C42.6385 23.9076 43 23.546 43 23.0999C43 22.6539 42.6385 22.2922 42.1923 22.2922H36.8077C36.3615 22.2922 36 22.6539 36 23.0999C36 23.546 36.3615 23.9076 36.8077 23.9076Z" fill="#9F8E60"/>
<path d="M36.8077 27.1383H44.3462C44.7923 27.1383 45.1538 26.7767 45.1538 26.3306C45.1538 25.8846 44.7923 25.5229 44.3462 25.5229H36.8077C36.3615 25.5229 36 25.8846 36 26.3306C36 26.7767 36.3615 27.1383 36.8077 27.1383Z" fill="#9F8E60"/>
<path d="M36.8077 30.3693H40.0385C40.4846 30.3693 40.8462 30.0077 40.8462 29.5616C40.8462 29.1155 40.4846 28.7539 40.0385 28.7539H36.8077C36.3615 28.7539 36 29.1155 36 29.5616C36 30.0077 36.3615 30.3693 36.8077 30.3693Z" fill="#9F8E60"/>
<path d="M36.8077 33.6H43.2692C43.7154 33.6 44.0769 33.2384 44.0769 32.7923C44.0769 32.3462 43.7154 31.9846 43.2692 31.9846H36.8077C36.3615 31.9846 36 32.3462 36 32.7923C36 33.2384 36.3615 33.6 36.8077 33.6Z" fill="#9F8E60"/>
</svg>
