<svg width="42" height="42" viewBox="0 0 42 42" fill="none" xmlns="http://www.w3.org/2000/svg">
<path d="M20.625 2.66483L6.20961 13.7473C6.00076 13.9078 5.91733 14.1836 6.00215 14.433C6.08689 14.6824 6.32117 14.8501 6.58466 14.8501H35.4153C35.6788 14.8501 35.913 14.6823 35.9978 14.433C36.0826 14.1836 35.9992 13.9078 35.7903 13.7473L21.375 2.66483C21.1538 2.49486 20.846 2.49486 20.625 2.66483ZM8.3941 13.6198L20.9999 3.92852L33.6058 13.6199H8.3941V13.6198Z" fill="#BB9E54"/>
<path d="M40.6055 36.9966H40.1543V35.7662C40.1543 34.9973 39.5287 34.3718 38.7598 34.3718H37.9571C38.3452 33.3418 37.6462 32.1389 36.586 31.9482V19.7346C37.6461 19.544 38.3451 18.3409 37.9571 17.311H39.4235C41.0413 17.316 41.7005 15.1611 40.4233 14.2052L32.9638 8.47037C32.6943 8.26315 32.308 8.31377 32.1011 8.58308C31.8939 8.85239 31.9444 9.23859 32.2138 9.44572L39.6733 15.1805C39.8842 15.3426 39.8957 15.5876 39.8361 15.7627C39.8036 15.8583 39.6983 16.0806 39.4235 16.0806H2.57652C2.30163 16.0806 2.19639 15.8583 2.1639 15.7627C2.10435 15.5876 2.11583 15.3426 2.32674 15.1805L20.0343 1.56702C20.6121 1.12299 21.3882 1.12299 21.9658 1.56702L29.9381 7.69615C30.2076 7.90337 30.5939 7.85275 30.8009 7.58344C31.008 7.31414 30.9575 6.92793 30.6882 6.7208L22.7157 0.591671C21.6895 -0.197224 20.3105 -0.197224 19.2843 0.591671L1.57681 14.2052C0.299004 15.1617 0.95952 17.3162 2.5766 17.311H4.04299C3.6549 18.341 4.35397 19.5439 5.41415 19.7346V21.1574C5.44237 21.972 6.61673 21.9713 6.64462 21.1574V19.7717H10.5001V31.9111H6.64453V24.0415C6.61632 23.227 5.44196 23.2276 5.41406 24.0415V31.9482C4.35389 32.1388 3.6549 33.3419 4.04291 34.3718H3.24024C2.47127 34.3718 1.8457 34.9973 1.8457 35.7662V36.9966H1.39453C0.625571 36.9966 0 37.6221 0 38.3909V41.3848C0 41.7245 0.275379 42 0.615235 42H30.0772C30.8918 41.9718 30.8912 40.7976 30.0772 40.7696H1.23047V38.3909C1.23047 38.3005 1.30405 38.2269 1.39453 38.2269H40.6055C40.696 38.2269 40.7696 38.3005 40.7696 38.3909V40.7696H32.9769C32.1623 40.7978 32.1629 41.972 32.9769 42H41.3848C41.7246 42 42 41.7245 42 41.3848V38.3909C42 37.6221 41.3744 36.9966 40.6055 36.9966ZM36.832 33.7567C36.832 34.0959 36.5561 34.3718 36.2168 34.3718H30.6387C29.8242 34.3429 29.8248 33.1702 30.6387 33.1414H36.2168C36.5561 33.1414 36.832 33.4174 36.832 33.7567ZM11.7305 31.9482V19.7346C12.7906 19.544 13.4896 18.3409 13.1016 17.311H16.4707C16.0826 18.341 16.7816 19.5439 17.8419 19.7346V31.9482C16.7817 32.1388 16.0827 33.3419 16.4707 34.3718H13.1016C13.4896 33.3418 12.7906 32.1389 11.7305 31.9482ZM22.9277 31.9111H19.0723V19.7717H22.9277V31.9111ZM17.5957 33.7567C17.5957 33.4175 17.8717 33.1415 18.2109 33.1415H23.7891C24.6036 33.1705 24.603 34.3432 23.7891 34.3719H18.2109C17.8717 34.3718 17.5957 34.0959 17.5957 33.7567ZM24.1582 31.9482V19.7346C25.2184 19.544 25.9174 18.3409 25.5294 17.311H28.8985C28.5104 18.341 29.2094 19.5439 30.2696 19.7346V31.9482C29.2095 32.1388 28.5105 33.3419 28.8985 34.3718H25.5294C25.9174 33.3418 25.2184 32.1389 24.1582 31.9482ZM35.3555 31.9111H31.5V19.7717H35.3555V31.9111ZM36.2168 17.311C37.0313 17.3399 37.0307 18.5126 36.2168 18.5413H30.6387C29.8242 18.5124 29.8248 17.3397 30.6387 17.311H36.2168ZM23.7891 17.311C24.6036 17.3399 24.603 18.5126 23.7891 18.5413H18.2109C17.3965 18.5124 17.397 17.3397 18.2109 17.311H23.7891ZM5.78321 18.5413C4.96872 18.5123 4.96929 17.3396 5.78321 17.3109H11.3613C12.1758 17.3398 12.1752 18.5126 11.3613 18.5413H5.78321ZM5.16797 33.7567C5.16797 33.4175 5.44392 33.1415 5.78321 33.1415H11.3613C12.1758 33.1705 12.1752 34.3432 11.3613 34.3719H5.78321C5.44392 34.3718 5.16797 34.0959 5.16797 33.7567ZM3.07617 36.9966V35.7662C3.07617 35.6758 3.14976 35.6021 3.24024 35.6021H38.7598C38.8503 35.6021 38.9238 35.6757 38.9238 35.7662V36.9966H3.07617Z" fill="#BB9E54"/>
</svg>
