<svg width="42" height="42" viewBox="0 0 42 42" fill="none" xmlns="http://www.w3.org/2000/svg">
<path d="M12.8709 18.9676C14.3788 18.9676 15.712 18.0071 16.1882 16.5763L16.2228 16.472L14.9377 16.0432L14.9032 16.1482C14.6112 17.0241 13.7942 17.6128 12.8709 17.6128C11.9476 17.6128 11.1306 17.0241 10.8387 16.1475L10.8041 16.0432L9.51904 16.472L9.55359 16.5757C10.0298 18.0071 11.363 18.9676 12.8709 18.9676Z" fill="#9F8E60"/>
<path d="M21.0001 34.5484C22.508 34.5484 23.8412 33.5879 24.3174 32.1572L24.3519 32.0528L23.0669 31.624L23.0323 31.729C22.7404 32.6049 21.9234 33.1936 21.0001 33.1936C20.0767 33.1936 19.2598 32.6049 18.9678 31.7283L18.9333 31.624L17.6482 32.0528L17.6827 32.1565C18.159 33.5879 19.4921 34.5484 21.0001 34.5484Z" fill="#9F8E60"/>
<path d="M32.5508 15.3666L32.5162 15.471C32.2242 16.3469 31.4073 16.9355 30.484 16.9355C29.5606 16.9355 28.7437 16.3469 28.4517 15.4703L28.4171 15.366L27.1321 15.7948L27.1666 15.8984C27.6429 17.3298 28.976 18.2904 30.484 18.2904C31.9919 18.2904 33.325 17.3298 33.8013 15.8991L33.8358 15.7948L32.5508 15.3666Z" fill="#9F8E60"/>
<path d="M40.8071 25.7799C40.3871 25.1492 39.8722 24.5991 39.2903 24.1412V10.9545C39.2903 6.40839 35.5916 2.70968 31.0455 2.70968C29.7225 2.70968 28.4733 3.19064 27.4978 4.07061C25.4276 4.16342 23.627 5.29674 22.596 6.95506C22.2539 6.03106 21.7208 5.18158 21.0027 4.46419L20.309 3.77052C20.1749 1.66916 18.4272 0 16.2919 0H12.7565C10.1613 0 7.71513 1.34197 6.31626 3.51784L6.17942 3.57271C4.07197 4.4161 2.70968 6.42735 2.70968 8.69806C2.70968 9.29148 2.80519 9.87948 2.99284 10.4438L4.08077 13.7062C4.1641 15.1254 5.334 16.2581 6.77419 16.2581H6.81416C7.01739 18.0844 8.02877 19.6702 9.48387 20.6464V23.1664L5.84816 23.9745C4.45945 24.2835 3.19335 24.9778 2.18739 25.9838C0.776323 27.3942 0 29.2699 0 31.2643V42H42V29.7191C42 28.3127 41.5875 26.9505 40.8071 25.7799ZM40.6452 29.7191V33.1936H37.9355V30.4839H36.5806V40.6452H31.5637C30.2102 38.2566 27.7674 36.7439 25.0273 36.5962C25.8937 35.9527 26.5989 35.11 27.0785 34.1331L27.1794 34.2341C27.8189 34.8735 28.6691 35.2258 29.5741 35.2258H32.7783L31.8983 32.5859C31.4844 31.3449 30.5157 30.4094 29.3221 30.0137L29.3824 29.8322C29.6642 28.9888 29.8065 28.1109 29.8065 27.2221C29.8065 26.4268 29.6872 25.6593 29.4759 24.9311C29.8017 25.0164 30.1384 25.0645 30.4839 25.0645C31.5386 25.0645 32.5304 24.654 33.2755 23.9082L33.4381 23.7456L35.6113 24.0172C37.2703 24.2245 38.7531 25.1411 39.6798 26.5318C40.3112 27.4788 40.6452 28.581 40.6452 29.7191ZM12.2186 26.7249C12.2091 26.8902 12.1935 27.0541 12.1935 27.2221C12.1935 27.2526 12.1969 27.2831 12.1969 27.3142L9.95265 28.2118L9.06184 24.6479L9.94519 24.4515L12.2186 26.7249ZM13.9575 31.1613H14.2258C14.2258 31.6998 14.2956 32.2215 14.4148 32.7241L13.8627 33.2762C13.4847 33.6542 12.9611 33.871 12.4259 33.871H11.1009L11.3867 33.014C11.7559 31.9058 12.789 31.1613 13.9575 31.1613ZM14.2258 28.9739V29.8065H14.0368L13.9027 29.4041C13.6676 28.6989 13.5484 27.9652 13.5484 27.2221C13.5484 23.4177 16.6435 20.3226 20.4479 20.3226H21.5521C25.3565 20.3226 28.4516 23.4177 28.4516 27.2221C28.4516 27.9652 28.3324 28.6989 28.098 29.4034L27.9632 29.8065H27.7742V29.5904C27.7742 27.8426 26.4099 26.3597 24.6682 26.2148L20.9167 25.9025C20.204 25.8422 19.6452 25.2352 19.6452 24.5199C19.6452 23.9217 20.0265 23.3933 20.5935 23.2043L21.2147 22.997L20.7859 21.712L20.1654 21.9193C19.0436 22.2932 18.2903 23.3378 18.2903 24.5199C18.2903 24.5951 18.2937 24.6703 18.2998 24.7441L17.1739 25.0659C15.4384 25.5617 14.2258 27.1693 14.2258 28.9739ZM18.9677 12.1935C19.7149 12.1935 20.3226 12.8012 20.3226 13.5484C20.3226 14.2956 19.7149 14.9032 18.9677 14.9032V12.1935ZM18.9278 16.2581H18.9677C20.393 16.2581 21.5521 15.1485 21.6571 13.7489L21.6774 13.7083V18.9738C21.6354 18.9732 21.5941 18.9677 21.5521 18.9677H20.4479C19.4169 18.9677 18.4333 19.1662 17.5221 19.5131C18.2842 18.6135 18.7909 17.491 18.9278 16.2581ZM30.4839 19.6452C27.869 19.6452 25.7419 17.5181 25.7419 14.9032V12.6942C25.7419 11.2282 26.5128 9.90929 27.7579 9.18445C28.0716 9.7169 28.4895 10.1897 28.9935 10.5677C29.8092 11.1795 30.8192 11.5161 31.8387 11.5161H33.871C34.6182 11.5161 35.2258 12.1238 35.2258 12.871V14.9032C35.2258 17.5181 33.0987 19.6452 30.4839 19.6452ZM30.4839 21C31.0272 21 31.5522 20.9214 32.0535 20.7873L32.4579 22.8094L32.3176 22.9496C31.3381 23.9292 29.6296 23.9292 28.6501 22.9496L28.5261 22.8256C28.5207 22.8175 28.516 22.8087 28.5112 22.8006L28.9143 20.7866C29.4156 20.9214 29.9406 21 30.4839 21ZM27.7742 31.1613H28.0425C29.211 31.1613 30.2441 31.9058 30.6133 33.014L30.8991 33.871H29.5741C29.0389 33.871 28.5153 33.6542 28.1373 33.2762L27.5852 32.7241C27.7044 32.2215 27.7742 31.6998 27.7742 31.1613ZM15.5806 28.9739C15.5806 27.7708 16.3888 26.6991 17.5458 26.3685L18.7462 26.0258C19.1981 26.7059 19.9439 27.1808 20.8035 27.2526L24.5551 27.5649C25.601 27.6516 26.4194 28.5417 26.4194 29.5904V31.1613C26.4194 34.1494 23.9881 36.5806 21 36.5806C18.0119 36.5806 15.5806 34.1494 15.5806 31.1613V28.9739ZM24.5849 37.9355C26.7377 37.9355 28.6982 38.9557 29.9426 40.6452H12.0574C13.3018 38.9557 15.2623 37.9355 17.4151 37.9355H24.5849ZM27.7742 5.41935H28.0546L28.2531 5.22087C28.999 4.47503 29.99 4.06452 31.0455 4.06452C34.8444 4.06452 37.9355 7.15558 37.9355 10.9545V23.3012C37.2621 22.9828 36.5359 22.7674 35.7793 22.6726L33.7619 22.4199L33.3351 20.2874C35.2637 19.2631 36.5806 17.2349 36.5806 14.9032V12.871C36.5806 11.3766 35.3654 10.1613 33.871 10.1613H31.8387C31.1105 10.1613 30.3884 9.92081 29.8065 9.48387C28.9583 8.84777 28.4516 7.83503 28.4516 6.77419H27.0968C27.0968 7.16371 27.1455 7.54916 27.239 7.92039C25.4886 8.85794 24.3871 10.6714 24.3871 12.6942V14.9032C24.3871 17.2349 25.704 19.2631 27.6326 20.288L27.4077 21.4119C26.2425 20.2372 24.7258 19.4162 23.0323 19.108V10.1613C23.0323 7.54645 25.1594 5.41935 27.7742 5.41935ZM19.1418 6.88055C19.5564 6.46664 19.8646 5.97619 20.0645 5.44374C21.1036 6.49442 21.6774 7.88448 21.6774 9.36329C21.6774 10.2243 21.4742 11.086 21.0887 11.8555L21.0799 11.8725C20.5834 11.2479 19.826 10.8387 18.9677 10.8387H18.4211L16.4721 10.059C15.9309 9.8429 15.5806 9.32603 15.5806 8.74277C15.5806 8.03081 16.1598 7.45161 16.8718 7.45161C17.428 7.45161 17.9205 7.8059 18.0966 8.33429L18.3255 9.02052L19.6106 8.59171L19.3816 7.90548C19.28 7.602 19.1235 7.33036 18.9318 7.09055L19.1418 6.88055ZM6.68274 4.83068L7.23755 4.60848L7.35474 4.41271C8.48671 2.52677 10.5562 1.35484 12.7565 1.35484H16.2919C17.7674 1.35484 18.9677 2.55523 18.9677 4.03064C18.9677 4.74532 18.6893 5.41732 18.184 5.92268L17.8249 6.28171C17.5262 6.16587 17.2065 6.09677 16.8718 6.09677C15.5705 6.09677 14.492 7.04313 14.2725 8.28213L12.581 8.76513C10.9125 9.24203 9.18716 9.48387 7.45161 9.48387C7.07835 9.48387 6.77419 9.17971 6.77419 8.80645C6.77419 8.43319 7.07835 8.12903 7.45161 8.12903H8.12903V6.77419H7.45161C6.33116 6.77419 5.41935 7.686 5.41935 8.80645C5.41935 9.68845 5.98771 10.4336 6.77419 10.7141V10.8387C6.01074 10.8387 5.32248 11.1591 4.82932 11.6692L4.2779 10.0156C4.13632 9.58955 4.06452 9.14584 4.06452 8.69806C4.06452 6.98487 5.09216 5.46677 6.68274 4.83068ZM5.41935 13.5484C5.41935 12.8012 6.027 12.1935 6.77419 12.1935V14.9032C6.027 14.9032 5.41935 14.2956 5.41935 13.5484ZM8.12903 15.5806V10.815C9.76161 10.7595 11.3813 10.5169 12.9529 10.0678L14.3857 9.65865C14.6445 10.4011 15.2067 11.0121 15.9688 11.317L17.6129 11.9747V15.5806C17.6129 18.1955 15.4858 20.3226 12.871 20.3226C10.2561 20.3226 8.12903 18.1955 8.12903 15.5806ZM12.871 21.6774C13.463 21.6774 14.0341 21.5887 14.576 21.4302C13.5897 22.43 12.8628 23.6819 12.4869 25.0767L10.8387 23.4292V21.3218C11.4755 21.548 12.1576 21.6774 12.871 21.6774ZM3.14526 26.9416C3.969 26.1179 5.00477 25.5495 6.14148 25.2969L7.73816 24.9419L9.01442 30.0463L12.3351 28.7178C12.4042 29.0938 12.495 29.4671 12.6169 29.8322L12.6772 30.0137C11.4836 30.4094 10.5149 31.3449 10.101 32.5859L9.22171 35.2258H12.4259C13.3303 35.2258 14.1811 34.8735 14.8206 34.2341L14.9215 34.1331C15.4011 35.11 16.107 35.9527 16.9727 36.5962C14.2319 36.7439 11.7898 38.2566 10.4363 40.6452H5.41935V31.1613H4.06452V33.871H1.35484V31.2643C1.35484 29.6317 1.99026 28.0966 3.14526 26.9416ZM1.35484 35.2258H4.06452V40.6452H1.35484V35.2258ZM37.9355 40.6452V34.5484H40.6452V40.6452H37.9355Z" fill="#9F8E60"/>
</svg>
