<svg width="29" height="42" viewBox="0 0 29 42" fill="none" xmlns="http://www.w3.org/2000/svg">
<path d="M23.7926 25.5796C23.4061 25.5796 23.0928 25.8929 23.0928 26.2794V41.3002C23.0928 41.6866 23.4061 41.9999 23.7926 41.9999C24.179 41.9999 24.4923 41.6866 24.4923 41.3002V26.2794C24.4923 25.8928 24.1791 25.5796 23.7926 25.5796Z" fill="#9F8E60"/>
<path d="M20.0439 10.0162C19.7775 9.77424 19.3711 9.77389 19.1042 10.0152L16.508 12.6093H13.9727C13.5863 12.6093 13.2729 12.9226 13.2729 13.3091C13.2729 13.6955 13.5863 14.0089 13.9727 14.0089H19.2365C19.6229 14.0089 19.9363 13.6955 19.9363 13.3091C19.9363 12.9226 19.6229 12.6093 19.2365 12.6093H18.487L20.0916 11.0047C20.3513 10.7186 20.3301 10.276 20.0439 10.0162Z" fill="#9F8E60"/>
<path d="M27.8086 22.6861C26.9551 20.54 25.469 18.7044 23.5476 17.423L21.3552 15.9682C25.1499 12.6753 25.5567 6.92962 22.2638 3.13498C18.9709 -0.65967 13.2253 -1.0665 9.4306 2.2264C5.63596 5.5193 5.22912 11.2649 8.52203 15.0596C9.08412 15.7074 9.7351 16.2724 10.4554 16.7379L9.50303 17.4132C5.73786 20.091 2.62611 23.5847 0.400285 27.6335C0.138742 28.1094 0.00114779 28.6434 1.06498e-05 29.1863V29.7C-0.00217616 30.549 0.332494 31.3641 0.930719 31.9665C1.52492 32.5645 2.33264 32.9014 3.17561 32.9029H6.29804V41.3002C6.29804 41.6867 6.61136 42 6.99782 42C7.38427 42 7.6976 41.6867 7.6976 41.3002V32.9029H14.0047C15.534 32.9078 16.7778 31.6721 16.7828 30.1428C16.7833 29.9946 16.7718 29.8464 16.7486 29.7L17.7338 28.397C19.8799 25.5845 21.5532 22.4409 22.6876 19.0899C22.745 18.917 22.7926 18.7701 22.8352 18.635C24.4923 19.7574 25.7742 21.3516 26.5147 23.2109C27.0307 24.4895 27.2945 25.8558 27.2915 27.2346V41.3002C27.2915 41.6867 27.6048 42 27.9912 42C28.3777 42 28.691 41.6867 28.691 41.3002V27.2346C28.6936 25.6756 28.394 24.1309 27.8086 22.6861ZM3.17561 31.5033C2.7072 31.5021 2.25847 31.3145 1.92861 30.982C1.58913 30.6418 1.39878 30.1805 1.39957 29.7V29.1863C1.39948 28.8791 1.47681 28.5769 1.6242 28.3074C2.93192 25.9311 4.56302 23.7477 6.47088 21.8197L7.11958 27.3046H4.89847C4.51202 27.3046 4.19869 27.6179 4.19869 28.0044C4.19869 28.3908 4.51202 28.7042 4.89847 28.7042H7.27773L7.60663 31.5033H3.17561ZM18.5442 2.09152L13.8634 4.0614L11.1426 2.70103C13.3392 1.23394 16.1372 1.00353 18.5442 2.09152ZM9.95509 3.67232L12.1643 4.77728L8.18254 6.45115C8.56637 5.40795 9.17098 4.4601 9.95509 3.67232ZM7.76757 8.14742L20.0361 2.98164C20.4555 3.29916 20.8415 3.65859 21.188 4.0544L7.94252 10.9927C7.69681 10.0652 7.63733 9.09807 7.76757 8.14742ZM8.76739 13.0044C8.63836 12.7854 8.52028 12.5601 8.41356 12.3292L22.0166 5.19985C24.1717 8.85848 22.9529 13.5715 19.2943 15.7267C15.6356 17.8819 10.9225 16.6631 8.76739 13.0044ZM9.02228 31.5033L7.74098 20.6091C8.25882 20.1445 8.79765 19.7064 9.34698 19.2795L12.4022 31.5033H9.02228ZM14.9921 31.0953C14.7315 31.3573 14.377 31.5043 14.0075 31.5033H13.8452L13.1454 28.7042H13.99C14.3744 28.7067 14.7411 28.8659 15.0054 29.145C15.5293 29.6916 15.5233 30.5558 14.9921 31.0953ZM21.3671 18.6448C20.2793 21.8524 18.6761 24.8612 16.6205 27.553L16.0824 28.2647C16.0502 28.229 16.0271 28.1877 15.9935 28.1527C15.4669 27.6121 14.7447 27.3064 13.99 27.3046H12.7955L10.5667 18.3761L11.8347 17.4776C14.544 18.6371 17.6483 18.4037 20.1537 16.852L21.6232 17.8233C21.5749 17.9982 21.4973 18.2557 21.3671 18.6448Z" fill="#9F8E60"/>
</svg>
