<svg width="48" height="48" viewBox="0 0 48 48" fill="none" xmlns="http://www.w3.org/2000/svg">
<circle cx="24" cy="24" r="24" fill="#BB9E54"/>
<g clip-path="url(#clip0_1530_3133)">
<path d="M31.4993 27.5359V29.9359C31.5002 30.1587 31.4574 30.3793 31.3737 30.5834C31.29 30.7876 31.1673 30.9708 31.0134 31.1214C30.8595 31.272 30.6778 31.3867 30.4799 31.4581C30.282 31.5295 30.0724 31.556 29.8643 31.5359C27.5565 31.2684 25.3396 30.4272 23.3918 29.0799C21.5797 27.8517 20.0433 26.2129 18.8918 24.2799C17.6243 22.1929 16.8355 19.8167 16.5893 17.3439C16.5706 17.1227 16.5952 16.8997 16.6617 16.6892C16.7282 16.4787 16.835 16.2853 16.9754 16.1212C17.1158 15.9572 17.2867 15.8261 17.4772 15.7363C17.6677 15.6466 17.8736 15.6001 18.0818 15.5999H20.3318C20.6958 15.5961 21.0487 15.7336 21.3247 15.9868C21.6006 16.2399 21.7809 16.5915 21.8318 16.9759C21.9268 17.744 22.1029 18.4981 22.3568 19.2239C22.4577 19.5103 22.4796 19.8215 22.4198 20.1206C22.36 20.4198 22.221 20.6944 22.0193 20.9119L21.0668 21.9279C22.1345 23.9308 23.6892 25.5891 25.5668 26.7279L26.5193 25.7119C26.7233 25.4968 26.9807 25.3486 27.2612 25.2848C27.5417 25.221 27.8334 25.2443 28.1018 25.3519C28.7823 25.6228 29.4893 25.8106 30.2093 25.9119C30.5737 25.9668 30.9064 26.1625 31.1442 26.4619C31.3821 26.7614 31.5085 27.1436 31.4993 27.5359Z" stroke="white" stroke-width="2" stroke-linecap="round" stroke-linejoin="round"/>
</g>
<defs>
<clipPath id="clip0_1530_3133">
<rect width="18" height="19.2" fill="white" transform="translate(14.9993 14)"/>
</clipPath>
</defs>
</svg>
