<svg width="22" height="22" viewBox="0 0 22 22" fill="none" xmlns="http://www.w3.org/2000/svg">
<path d="M7.33335 1.83334H14.6667C17.6999 1.83334 20.1667 4.30009 20.1667 7.33334V19.25C20.1667 19.4931 20.0701 19.7263 19.8982 19.8982C19.7263 20.0701 19.4931 20.1667 19.25 20.1667H7.33335C4.3001 20.1667 1.83335 17.6999 1.83335 14.6667V7.33334C1.83335 4.30009 4.3001 1.83334 7.33335 1.83334ZM3.66669 14.6667C3.66669 16.6888 5.31119 18.3333 7.33335 18.3333H18.3334V7.33334C18.3334 5.31118 16.6889 3.66668 14.6667 3.66668H7.33335C5.31119 3.66668 3.66669 5.31118 3.66669 7.33334V14.6667Z" fill="#0D1E22"/>
<path d="M10.0834 12.4538L7.98147 10.3519L6.6853 11.648L10.0834 15.0461L15.7731 9.35638L14.477 8.06021L10.0834 12.4538Z" fill="#0D1E22"/>
</svg>
