<svg width="48" height="48" viewBox="0 0 48 48" fill="none" xmlns="http://www.w3.org/2000/svg">
<circle cx="24" cy="24" r="24" fill="#BB9E54"/>
<path d="M32 25.7266V28.6953C32 29.3333 31.7569 29.8802 31.2708 30.3359C30.7986 30.7786 30.2153 31 29.5208 31H18.4792C17.7847 31 17.1944 30.7786 16.7083 30.3359C16.2361 29.8802 16 29.3333 16 28.6953V25.7266C16 25.4922 16.0833 25.2969 16.25 25.1406C16.4306 24.9714 16.6458 24.8867 16.8958 24.8867C17.1319 24.8867 17.3333 24.9714 17.5 25.1406C17.6806 25.2969 17.7708 25.4922 17.7708 25.7266V28.6953C17.7708 28.8776 17.8403 29.0339 17.9792 29.1641C18.1181 29.2813 18.2847 29.3398 18.4792 29.3398H29.5208C29.7153 29.3398 29.8819 29.2813 30.0208 29.1641C30.1597 29.0339 30.2292 28.8776 30.2292 28.6953V25.7266C30.2292 25.4922 30.3125 25.2969 30.4792 25.1406C30.6597 24.9714 30.8681 24.8867 31.1042 24.8867C31.3542 24.8867 31.5625 24.9714 31.7292 25.1406C31.9097 25.2969 32 25.4922 32 25.7266ZM23.375 26.3125C23.4583 26.3906 23.5486 26.4557 23.6458 26.5078C23.7569 26.5469 23.875 26.5664 24 26.5664C24.125 26.5664 24.2361 26.5469 24.3333 26.5078C24.4444 26.4557 24.5417 26.3906 24.625 26.3125L28.5833 22.6211C28.6667 22.543 28.7292 22.4518 28.7708 22.3477C28.8264 22.2435 28.8542 22.1328 28.8542 22.0156C28.8542 21.7813 28.7639 21.5859 28.5833 21.4297C28.4167 21.2604 28.2083 21.1758 27.9583 21.1758C27.8333 21.1758 27.7153 21.2018 27.6042 21.2539C27.4931 21.293 27.3958 21.3516 27.3125 21.4297L24.8958 23.7148V16.8398C24.8958 16.6055 24.8056 16.4102 24.625 16.2539C24.4583 16.0846 24.25 16 24 16C23.75 16 23.5347 16.0846 23.3542 16.2539C23.1875 16.4102 23.1042 16.6055 23.1042 16.8398V23.7148L20.6875 21.4297C20.6042 21.3516 20.5069 21.293 20.3958 21.2539C20.2847 21.2018 20.1667 21.1758 20.0417 21.1758C19.7917 21.1758 19.5764 21.2604 19.3958 21.4297C19.2292 21.5859 19.1458 21.7813 19.1458 22.0156C19.1458 22.1328 19.1667 22.2435 19.2083 22.3477C19.2639 22.4518 19.3333 22.543 19.4167 22.6211L23.375 26.3125Z" fill="white"/>
</svg>
