<svg width="21" height="16" viewBox="0 0 21 16" fill="none" xmlns="http://www.w3.org/2000/svg">
<path d="M18.8516 4.2404H18.2963V10.3438C18.2963 11.2941 17.743 12.1534 16.6337 12.1534H5.76596V12.4436C5.76596 13.2837 6.72156 14.1318 7.70289 14.1318H16.0118L19.1906 16.0007L18.7296 14.1318H18.8516C19.8323 14.1318 20.2748 13.2857 20.2748 12.4436V5.68926C20.2748 4.84909 19.8323 4.2404 18.8516 4.2404Z" fill="white"/>
<path d="M15.0114 0H2.38868C1.2781 0 0 0.986568 0 1.93752V9.58738C0 10.4632 1.08289 11.0956 2.12159 11.1932L1.44561 13.7592L5.77715 11.211H15.0114C16.1219 11.211 17.1468 10.5377 17.1468 9.58738V3.39825V1.93752C17.1468 0.986568 16.1213 0 15.0114 0ZM4.3144 6.45754C3.68458 6.45754 3.17414 5.94711 3.17414 5.31731C3.17414 4.68752 3.68458 4.17709 4.3144 4.17709C4.94355 4.17709 5.45466 4.68752 5.45466 5.31731C5.45466 5.94711 4.94355 6.45754 4.3144 6.45754ZM8.5734 6.45754C7.94358 6.45754 7.43314 5.94711 7.43314 5.31731C7.43314 4.68752 7.94358 4.17709 8.5734 4.17709C9.20321 4.17709 9.71366 4.68752 9.71366 5.31731C9.71366 5.94711 9.20321 6.45754 8.5734 6.45754ZM12.8331 6.45754C12.2032 6.45754 11.6921 5.94711 11.6921 5.31731C11.6921 4.68752 12.2032 4.17709 12.8331 4.17709C13.4616 4.17709 13.9733 4.68752 13.9733 5.31731C13.9733 5.94711 13.4616 6.45754 12.8331 6.45754Z" fill="white"/>
</svg>
