<svg width="17" height="13" viewBox="0 0 17 13" fill="none" xmlns="http://www.w3.org/2000/svg">
<path d="M16.3929 0H0.607143C0.271317 0 0 0.264062 0 0.590909V12.4091C0 12.7359 0.271317 13 0.607143 13H16.3929C16.7287 13 17 12.7359 17 12.4091V0.590909C17 0.264062 16.7287 0 16.3929 0ZM15.6339 2.04602V11.6705H1.36607V2.04602L0.842411 1.64901L1.58806 0.716477L2.40011 1.33139H14.6018L15.4138 0.716477L16.1595 1.64901L15.6339 2.04602ZM14.6018 1.32955L8.5 5.94602L2.39821 1.32955L1.58616 0.714631L0.840513 1.64716L1.36417 2.04418L7.84542 6.94872C8.03182 7.08965 8.26112 7.16616 8.49715 7.16616C8.73318 7.16616 8.96249 7.08965 9.14888 6.94872L15.6339 2.04602L16.1576 1.64901L15.4119 0.716477L14.6018 1.32955Z" fill="#DDAA28"/>
</svg>
