<svg width="42" height="42" viewBox="0 0 42 42" fill="none" xmlns="http://www.w3.org/2000/svg">
<path d="M17.7188 28.3828C18.1718 28.3828 18.5391 28.0155 18.5391 27.5625C18.5391 27.1095 18.1718 26.7422 17.7188 26.7422C17.2657 26.7422 16.8984 27.1095 16.8984 27.5625C16.8984 28.0155 17.2657 28.3828 17.7188 28.3828Z" fill="#9F8E60"/>
<path d="M3.28125 11.1562V14.4375C3.28125 14.8906 3.6485 15.2578 4.10156 15.2578H27.8086C28.2616 15.2578 28.6289 14.8906 28.6289 14.4375V11.1562C28.6289 10.7032 28.2616 10.3359 27.8086 10.3359H4.10156C3.6485 10.3359 3.28125 10.7032 3.28125 11.1562V11.1562ZM11.9766 11.9766H26.9883V13.6172H11.9766V11.9766ZM4.92188 11.9766H10.3359V13.6172H4.92188V11.9766Z" fill="#9F8E60"/>
<path d="M4.10156 18.5391H27.8086C28.2616 18.5391 28.6289 18.1718 28.6289 17.7188C28.6289 17.2657 28.2616 16.8984 27.8086 16.8984H4.10156C3.6485 16.8984 3.28125 17.2657 3.28125 17.7188C3.28125 18.1718 3.6485 18.5391 4.10156 18.5391V18.5391Z" fill="#9F8E60"/>
<path d="M4.10156 21.8203H27.8086C28.2616 21.8203 28.6289 21.4531 28.6289 21C28.6289 20.5469 28.2616 20.1797 27.8086 20.1797H4.10156C3.6485 20.1797 3.28125 20.5469 3.28125 21C3.28125 21.4531 3.6485 21.8203 4.10156 21.8203V21.8203Z" fill="#9F8E60"/>
<path d="M4.10156 25.1016H17.7188C18.1718 25.1016 18.5391 24.7343 18.5391 24.2812C18.5391 23.8282 18.1718 23.4609 17.7188 23.4609H4.10156C3.6485 23.4609 3.28125 23.8282 3.28125 24.2812C3.28125 24.7343 3.6485 25.1016 4.10156 25.1016V25.1016Z" fill="#9F8E60"/>
<path d="M4.10156 28.3828H14.4375C14.8906 28.3828 15.2578 28.0156 15.2578 27.5625C15.2578 27.1094 14.8906 26.7422 14.4375 26.7422H4.10156C3.6485 26.7422 3.28125 27.1094 3.28125 27.5625C3.28125 28.0156 3.6485 28.3828 4.10156 28.3828V28.3828Z" fill="#9F8E60"/>
<path d="M11.1562 34.9453H15.3403C15.7215 36.8152 17.3786 38.2266 19.3594 38.2266C21.621 38.2266 23.4609 36.3866 23.4609 34.125C23.4609 31.8634 21.621 30.0234 19.3594 30.0234C17.3786 30.0234 15.7215 31.4348 15.3403 33.3047H11.1562C10.7032 33.3047 10.3359 33.6719 10.3359 34.125C10.3359 34.5781 10.7032 34.9453 11.1562 34.9453V34.9453ZM19.3594 33.3047H17.0395C17.3782 32.3499 18.2899 31.6641 19.3594 31.6641C20.7163 31.6641 21.8203 32.768 21.8203 34.125C21.8203 35.482 20.7163 36.5859 19.3594 36.5859C18.29 36.5859 17.3782 35.9001 17.0395 34.9453H19.3594C19.8124 34.9453 20.1797 34.5781 20.1797 34.125C20.1797 33.6719 19.8124 33.3047 19.3594 33.3047V33.3047Z" fill="#9F8E60"/>
<path d="M27.8086 6.5625C28.2616 6.5625 28.6289 6.19525 28.6289 5.74219C28.6289 5.28913 28.2616 4.92188 27.8086 4.92188H26.168C25.715 4.92188 25.3477 5.28913 25.3477 5.74219C25.3477 6.19525 25.715 6.5625 26.168 6.5625H27.8086Z" fill="#9F8E60"/>
<path d="M22.8867 6.5625C23.3397 6.5625 23.707 6.19525 23.707 5.74219C23.707 5.28913 23.3397 4.92188 22.8867 4.92188H21.2461C20.7931 4.92188 20.4258 5.28913 20.4258 5.74219C20.4258 6.19525 20.7931 6.5625 21.2461 6.5625H22.8867Z" fill="#9F8E60"/>
<path d="M17.9648 6.5625C18.4179 6.5625 18.7852 6.19525 18.7852 5.74219C18.7852 5.28913 18.4179 4.92188 17.9648 4.92188H16.3242C15.8712 4.92188 15.5039 5.28913 15.5039 5.74219C15.5039 6.19525 15.8712 6.5625 16.3242 6.5625H17.9648Z" fill="#9F8E60"/>
<path d="M16.0781 42C16.5312 42 16.8984 41.6327 16.8984 41.1797C16.8984 40.7266 16.5312 40.3594 16.0781 40.3594C15.6251 40.3594 15.2578 40.7266 15.2578 41.1797C15.2578 41.6327 15.6251 42 16.0781 42Z" fill="#9F8E60"/>
<path d="M0.820312 42H12.3867C12.8398 42 13.207 41.6327 13.207 41.1797C13.207 40.7266 12.8398 40.3594 12.3867 40.3594H1.64062V8.20312H7.38281C7.83587 8.20312 8.20312 7.83587 8.20312 7.38281V1.64062H30.2695V24.8269C29.8974 25.2672 29.55 25.6537 29.2493 25.9622L27.5102 24.2231C25.9078 22.6195 23.3125 22.6188 21.7094 24.2229L20.5495 25.3828C20.2292 25.7032 20.2292 26.2226 20.5495 26.5429L30.2694 36.2629V40.3594H19.7694C19.3164 40.3594 18.9491 40.7266 18.9491 41.1797C18.9491 41.6327 19.3164 42 19.7694 42H31.0898C31.5427 42 31.9101 41.6327 31.9101 41.1797V37.9035L32.1503 38.1438C32.4707 38.4639 32.9902 38.4641 33.3105 38.1438L34.4704 36.9839C36.0732 35.3811 36.0735 32.7863 34.4704 31.1833L32.7316 29.4444C34.2877 27.9282 37.7104 25.4098 39.5088 24.6265C42.0331 23.5277 42.9439 20.0956 40.7902 17.9419C38.6527 15.8033 35.2359 16.6723 34.1165 19.2038C33.6966 20.1525 32.8269 21.4865 31.9102 22.7366V0.820312C31.9102 0.367254 31.5428 0 31.0898 0H7.38281C7.15911 0 6.94887 0.0943359 6.80277 0.24027L0.24027 6.80277C0.091875 6.95084 0 7.16018 0 7.38281V41.1797C0 41.6327 0.367254 42 0.820312 42V42ZM33.3103 32.3434C34.2719 33.3049 34.2721 34.862 33.3103 35.8238L32.7305 36.4037L22.2897 25.9629L22.8697 25.3828C23.8313 24.4208 25.3879 24.4203 26.35 25.383L33.3103 32.3434ZM31.7328 25.635C33.1544 23.9205 34.9068 21.4722 35.6168 19.8675C36.2544 18.4256 38.2809 17.7521 39.63 19.1019C40.9798 20.4516 40.2941 22.4954 38.8539 23.1223C36.8127 24.0114 33.26 26.6333 31.5714 28.2842L30.4095 27.1222C30.7984 26.7243 31.2528 26.2142 31.7328 25.635ZM6.5625 2.80071V6.5625H2.80071L6.5625 2.80071Z" fill="#9F8E60"/>
</svg>
