<svg width="18" height="14" viewBox="0 0 18 14" fill="none" xmlns="http://www.w3.org/2000/svg">
<path d="M1.1282 4.83888C1.00356 4.73614 0.818186 4.83225 0.818186 4.99466V11.7726C0.818186 12.6509 1.50533 13.3635 2.35228 13.3635H15.6477C16.4947 13.3635 17.1818 12.6509 17.1818 11.7726V4.99797C17.1818 4.83225 16.9997 4.73945 16.8718 4.8422C16.1559 5.4189 15.2067 6.15138 11.9467 8.60735C11.2724 9.11777 10.1346 10.1916 9 10.185C7.85902 10.1949 6.69887 9.09788 6.05008 8.60735C2.79013 6.15138 1.84411 5.41559 1.1282 4.83888ZM9 9.12108C8.25853 9.13434 7.19106 8.15328 6.65412 7.74892C2.413 4.55716 2.0902 4.27875 1.11222 3.48329C0.926851 3.33415 0.818186 3.10214 0.818186 2.85687V2.22714C0.818186 1.34883 1.50533 0.63623 2.35228 0.63623H15.6477C16.4947 0.63623 17.1818 1.34883 17.1818 2.22714V2.85687C17.1818 3.10214 17.0732 3.33083 16.8878 3.48329C15.9098 4.27543 15.587 4.55716 11.3459 7.74892C10.809 8.15328 9.74148 9.13434 9 9.12108Z" fill="white"/>
</svg>
