<svg width="48" height="48" viewBox="0 0 48 48" fill="none" xmlns="http://www.w3.org/2000/svg">
<circle cx="24" cy="24" r="24" fill="#BB9E54"/>
<path fill-rule="evenodd" clip-rule="evenodd" d="M28.42 18.33C29.0005 18.9104 29.4611 19.5995 29.7753 20.3578C30.0895 21.1162 30.2512 21.9291 30.2512 22.75C30.2512 23.5709 30.0895 24.3838 29.7753 25.1421C29.4611 25.9005 29.0005 26.5896 28.42 27.17L24 31.5875L19.58 27.1687C18.9996 26.5883 18.5391 25.8992 18.225 25.1408C17.9109 24.3824 17.7492 23.5696 17.7492 22.7487C17.7492 21.9279 17.9109 21.115 18.225 20.3567C18.5391 19.5983 18.9996 18.9092 19.58 18.3287C20.1604 17.7483 20.8495 17.2879 21.6079 16.9737C22.3663 16.6596 23.1791 16.4979 24 16.4979C24.8209 16.4979 25.6337 16.6596 26.3921 16.9737C27.1505 17.2879 27.8396 17.7483 28.42 18.3287V18.33ZM29.745 28.495C30.8814 27.3587 31.6553 25.911 31.9688 24.3349C32.2824 22.7588 32.1215 21.1251 31.5066 19.6404C30.8916 18.1557 29.8502 16.8867 28.5141 15.9939C27.1779 15.1011 25.607 14.6245 24 14.6245C22.393 14.6245 20.8221 15.1011 19.4859 15.9939C18.1498 16.8867 17.1084 18.1557 16.4934 19.6404C15.8785 21.1251 15.7176 22.7588 16.0312 24.3349C16.3447 25.911 17.1186 27.3587 18.255 28.495L22.6738 32.915C22.8479 33.0892 23.0546 33.2275 23.2822 33.3218C23.5098 33.4161 23.7537 33.4646 24 33.4646C24.2463 33.4646 24.4902 33.4161 24.7178 33.3218C24.9454 33.2275 25.1521 33.0892 25.3263 32.915L29.745 28.495ZM24 25.25C24.663 25.25 25.2989 24.9866 25.7678 24.5178C26.2366 24.0489 26.5 23.413 26.5 22.75C26.5 22.087 26.2366 21.4511 25.7678 20.9822C25.2989 20.5134 24.663 20.25 24 20.25C23.337 20.25 22.7011 20.5134 22.2322 20.9822C21.7634 21.4511 21.5 22.087 21.5 22.75C21.5 23.413 21.7634 24.0489 22.2322 24.5178C22.7011 24.9866 23.337 25.25 24 25.25Z" fill="white"/>
</svg>
